<svg xmlns="http://www.w3.org/2000/svg" version="1" viewBox="0 0 100 125" id="about-icon"><path d="M50.592 86H94.04s.123-1.81-.574-4.638c-1.867-7.578-14.82-10.232-18.664-11.99-3.545-1.62-11.91-4.354-13.187-5.118l-.324-5.487s2.107-2.638 2.71-4.944c.604-2.306.88-4.055.88-4.055s1.646.608 2.25-.93c.604-1.537 2.746-7.794 2.36-9.606-.384-1.812-1.373-1.317-1.373-1.317s1.263-8.42.934-10.066c-.33-1.648 1.176-13.672-18.403-13.682-19.767.01-18.108 12.02-18.438 13.667-.33 1.647.926 10.074.926 10.074s-.99-.49-1.375 1.32c-.383 1.813 1.757 8.074 2.36 9.61.605 1.54 2.25.936 2.25.936s.275 1.757.88 4.064c.604 2.306 2.708 5.35 2.708 5.35L39.643 65h-.013s-9.516 3.14-13.36 4.897C22.427 71.653 9.47 73.98 7.602 81.56 6.904 84.386 6.768 86 6.768 86h43.824z"/></svg>