<?xml version="1.0" encoding="utf-8"?>
<!-- Generator: Adobe Illustrator 21.1.0, SVG Export Plug-In . SVG Version: 6.00 Build 0)  -->
<svg version="1.1" id="logo-svg" xmlns="http://www.w3.org/2000/svg" xmlns:xlink="http://www.w3.org/1999/xlink" x="0px" y="0px"
	 viewBox="0 0 500 500" style="enable-background:new 0 0 500 500;" xml:space="preserve">
<path d="M122.4,114c65.7-0.2,131.5-0.1,197.2-0.1c0.1,18.5,0,36.9,0,56.2c-65.8,0-131.7,0-197.6,0c0.3-18.5,0.5-37.7,0.5-56.1
	C122.6,114,122.4,114,122.4,114z"/>
<path d="M122.1,217c18.8,0,37.7,0,56.2,0c0,53.1,0,106.2,0,159.6c-18.7,0-37.3-0.1-56-0.1c0.1-53.3,0.3-106.4-0.5-159.5L122.1,217
	L122.1,217z"/>
<path d="M225.4,217c18.8,0,37.7,0,56.9,0c0,53.1,0,106.2,0,159.6c-18.8,0-37.7,0-56.6,0c-0.4-53.4-0.2-106.5-0.2-159.6H225.4z"/>
<path d="M329.1,217c18.8,0,37.7,0,56.2,0c-0.6,53.2-0.3,106.3-0.2,159.2c-18.6,0-37.3,0.1-56,0.1c0-53.1,0.4-106.2,0.4-159.3
	L329.1,217L329.1,217z"/>
<path d="M253.7,4.8C120.9,4.8,13.3,112.5,13.3,245.2c0,133.1,107.7,240,240,240c132.8,0,240.4-107.6,240.4-240.4
	C494.1,112.4,386.5,4.8,253.7,4.8z M253.7,458.3C136,458.5,41,363.2,41,245.5c0-117.7,95.4-213.1,213.1-213.1
	c117.7,0,213.1,95.4,213.1,213.1c-0.4,117.7-96.1,213.1-213.8,212.8H253.7z"/>
</svg>
