<?xml version="1.0" encoding="utf-8"?>
<!-- Generator: Adobe Illustrator 21.1.0, SVG Export Plug-In . SVG Version: 6.00 Build 0)  -->
<svg version="1.1" xmlns="http://www.w3.org/2000/svg" xmlns:xlink="http://www.w3.org/1999/xlink" x="0px" y="0px"
	 viewBox="0 0 8 8" style="enable-background:new 0 0 8 8;" xml:space="preserve">
<style type="text/css">
	.st0{display:none;}
	.st1{display:inline;}
	.st2{fill:none;}
	.st3{fill:#FA5A1F;}
</style>
<g id="Layer_1">
	<path d="M0,0v8h8V6H7v1H1V1h1V0H0z M4,0l1.5,1.5L3,4l1,1l2.5-2.5L8,4V0H4z"/>
</g>
<g id="Layer_2" class="st0">
	<g class="st1">
		<polygon class="st2" points="2,1.3 1.8,2.1 2.5,1.4 2,1.3 		"/>
		<polygon class="st2" points="3.1,3.6 3.5,2.9 2.6,3.2 		"/>
		<path class="st2" d="M5.2,0.1C5.6,0.1,6,0.4,6,0.8c0,0.4-0.3,0.8-0.8,0.8c-0.4,0-0.8-0.3-0.8-0.8C4.5,0.4,4.8,0.1,5.2,0.1z
			 M4.1,7.6C4.1,7.6,4.1,7.6,4.1,7.6c0-0.1,0.1-0.2,0.2-0.5C4.4,6.8,4.7,6.3,5,5.7L3.4,4.4l0.5,0.6L2.6,7.5C2.5,7.7,2.4,7.8,2.2,7.8
			c-0.1,0-0.1,0-0.2,0C1.8,7.6,1.7,7.3,1.8,7.1l1.1-1.9L1.7,3.8L1.6,5.4L1.1,7.5c0,0.2-0.2,0.3-0.4,0.3c0,0-0.1,0-0.1,0
			C0.3,7.8,0.2,7.5,0.2,7.3l0.5-2l0-2l0.5-0.6L0.4,2c-0.1-0.1-0.1-0.2,0-0.3c0.1-0.1,0.2-0.1,0.3,0L1.1,2l0.3-1.5h2.3L4.8,2L3.7,4.1
			l1.6,1.3C5.4,5.3,5.6,5.1,5.7,5c0.5-0.5,1.4,0.1,1.4,0.1l0.4,0.3l1.1,0.8l0.1,0L7.3,7.6L4.1,7.6z"/>
		<path d="M5.2,1.6C5.6,1.6,6,1.3,6,0.8S5.6,0.1,5.2,0.1c-0.4,0-0.8,0.3-0.8,0.8C4.5,1.3,4.8,1.6,5.2,1.6z"/>
		<polygon class="st3" points="1.8,2.1 2,1.3 2,1.3 		"/>
		<polygon class="st3" points="2.5,1.4 2.5,1.4 2,1.3 		"/>
		<path d="M8.7,6.2L8.7,6.2L7.6,5.4L7.1,5.1c0,0-0.9-0.6-1.4-0.1C5.6,5.1,5.4,5.3,5.3,5.4L3.7,4.1L4.8,2L3.7,0.5H1.4L1.1,2L0.7,1.6
			c-0.1-0.1-0.2-0.1-0.3,0C0.3,1.8,0.3,1.9,0.4,2l0.9,0.7L0.7,3.3l0,2l-0.5,2C0.2,7.5,0.3,7.8,0.5,7.8c0,0,0.1,0,0.1,0
			c0.2,0,0.4-0.1,0.4-0.3l0.6-2.1l0.1-1.6l1.1,1.3L1.8,7.1C1.7,7.3,1.8,7.6,2,7.7c0.1,0,0.1,0,0.2,0c0.2,0,0.3-0.1,0.4-0.2L3.9,5
			L3.4,4.4L5,5.7C4.7,6.2,4.4,6.8,4.2,7.1C4.1,7.4,4.1,7.6,4.1,7.6c0,0,0,0,0,0l3.2,0L8.7,6.2z M2.5,1.4L1.8,2.1l0,0L2,1.3l0,0
			l0.1,0L2.5,1.4L2.5,1.4z M3.1,3.6L2.6,3.2l0.9-0.4L3.1,3.6z"/>
		<line class="st2" x1="2" y1="1.3" x2="2" y2="1.3"/>
	</g>
</g>
</svg>
