<svg xmlns="http://www.w3.org/2000/svg" viewBox="0 0 30 37.5" id="portfolio-icon">
    <path d="M-95.333 17.557v3.552h16.666v-3.553h7.333v3.552h1C-67.71 21.11-57 16.874-57 4.89V0a2.666 2.666 0 0 0-2.667-2.667h-54.667A2.666 2.666 0 0 0-117 0v4.89c0 11.985 10.71 16.22 13.333 16.22h1v-3.552h7.334z"></path>
    <path d="M-78.667 29.558v-5.782h-16.666v5.782h-7.333v-5.782h-1c-2.417 0-9.647-2.56-13.333-9.51v24.4a2.665 2.665 0 0 0 2.668 2.667h54.667a2.665 2.665 0 0 0 2.667-2.666v-24.4c-3.686 6.95-10.917 9.51-13.333 9.51h-1v5.78h-7.337z"></path>
    <path d="M-77 19.833h3.917v7.8H-77zM-101 19.833h3.917v7.8H-101zM-98.667-4.667v-8h23.333v8h2.667v-8a2.666 2.666 0 0 0-2.667-2.667h-23.333a2.666 2.666 0 0 0-2.667 2.667v8h2.667zM-33.556 16.04v2.367h11.112V16.04h4.89v2.367h.666C-15.14 18.407-8 15.584-8 7.594v-3.26c0-.983-.796-1.778-1.778-1.778h-36.444c-.982 0-1.778.795-1.778 1.778v3.26c0 7.99 7.14 10.813 8.89 10.813h.666V16.04h4.888z"></path>
    <path d="M-22.444 24.04v-3.855h-11.112v3.854h-4.89v-3.855h-.666c-1.61 0-6.432-1.707-8.89-6.34v16.268c0 .98.797 1.777 1.78 1.777H-9.78c.984 0 1.78-.796 1.78-1.778V13.844c-2.458 4.634-7.278 6.34-8.89 6.34h-.666v3.854h-4.888z"></path>
    <path d="M-21.333 17.556h2.61v5.2h-2.61zM-37.333 17.556h2.61v5.2h-2.61zM-35.778 1.223V-4.11h15.556v5.333h1.778V-4.11c0-.983-.796-1.778-1.778-1.778h-15.556c-.98 0-1.778.795-1.778 1.778v5.333h1.778z"></path>
    <g class="group1">
        <path d="M10.833 17.278v1.776h8.334v-1.776h3.666v1.776h.5c1.313 0 6.667-2.117 6.667-8.11V8.5c0-.737-.597-1.333-1.333-1.333H1.333C.597 7.167 0 7.763 0 8.5v2.445c0 5.992 5.354 8.11 6.667 8.11h.5v-1.777h3.666z"></path>
        <path d="M19.167 23.28v-2.892h-8.334v2.89H7.167v-2.89h-.5c-1.208 0-4.824-1.28-6.667-4.755v12.2c0 .737.597 1.333 1.333 1.333h27.333c.737 0 1.333-.596 1.333-1.332v-12.2c-1.844 3.475-5.46 4.754-6.668 4.754h-.5v2.89h-3.665z"></path>
        <path d="M20 18.417h1.958v3.9H20zM8 18.417h1.958v3.9H8zM9.167 6.167v-4h11.667v4h1.333v-4c0-.737-.598-1.334-1.333-1.334H9.167c-.736 0-1.333.597-1.333 1.334v4h1.333z"></path>
    </g>
    <g class="group2">
        <path d="M43.222 15.363v1.185h5.556v-1.185h2.444v1.185h.333c.875 0 4.445-1.412 4.445-5.406v-1.63a.888.888 0 0 0-.89-.89H36.89c-.492 0-.89.398-.89.89v1.63c0 3.994 3.57 5.405 4.445 5.405h.333v-1.185h2.444z"></path>
        <path d="M48.778 19.364v-1.928h-5.556v1.928h-2.444v-1.928h-.333c-.806 0-3.216-.853-4.445-3.17V22.4c0 .49.398.888.89.888h18.22c.492 0 .89-.397.89-.888v-8.134c-1.23 2.317-3.64 3.17-4.445 3.17h-.333v1.928h-2.444z"></path>
        <path d="M49.333 16.123h1.306v2.6h-1.307zM41.333 16.123h1.306v2.6h-1.307zM42.11 7.956V5.29h7.78v2.666h.888V5.29a.89.89 0 0 0-.89-.89h-7.777a.89.89 0 0 0-.888.89v2.666h.89z"></path>
    </g>
</svg>